PathFileType	4	(X/Y/Z)	C:\Users\WrightLab\Desktop\Jo\P1.2Trial19.trc
DataRate	CameraRate	NumFrames	NumMarkers	Units	OrigDataRate	OrigDataStartFrame	OrigNumFrames
100.00	100.00	       79	19	mm	100.00	551	       629
Frame#	Time	Headset_Front			Headset_Back			Headset_Left			Headset_Right			Left_Shoulder			Right_Shoulder			Sternum			C7			Left Elbow			Right Elbow			Left Wrist			Right Wrist			Left ASIS			Right ASIS			S2			Left Knee			Right Knee			Left Ankle			Right Ankle			
		X1	Y1	Z1	X2	Y2	Z2	X3	Y3	Z3	X4	Y4	Z4	X5	Y5	Z5	X6	Y6	Z6	X7	Y7	Z7	X8	Y8	Z8	X9	Y9	Z9	X10	Y10	Z10	X11	Y11	Z11	X12	Y12	Z12	X13	Y13	Z13	X14	Y14	Z14	X15	Y15	Z15	X16	Y16	Z16	X17	Y17	Z17	X18	Y18	Z18	X19	Y19	Z19	

551	5.500																																		-152.52792	820.46063	2133.36230																						
552	5.510																																		-143.35728	824.53558	2147.73315																						
553	5.520																																		-135.83440	828.75409	2161.91528																						
554	5.530																																		-129.86227	832.66766	2174.57935																						
555	5.540																																		-124.40958	836.14478	2186.16431																						
556	5.550																																		-120.08719	840.17676	2198.37012																						
557	5.560																																		-116.16459	843.83112	2208.41284																						
558	5.570																																		-112.90830	848.55969	2218.89404																						
559	5.580																																		-109.46386	851.16150	2228.36523																						
560	5.590																																		-107.54342	855.07819	2239.14258																						
561	5.600																																		-104.32010	859.20630	2246.96069																						
562	5.610																																		-103.44278	860.61267	2255.16675																						
563	5.620																																		-101.60572	863.77600	2263.50513																						
564	5.630																																		-97.46017	867.92676	2272.33667																						
565	5.640																																		-97.52116	868.42615	2278.93896																						
566	5.650																																		-96.03207	869.99603	2286.44287																						
567	5.660																																		-94.47100	870.69629	2293.31763																						
568	5.670																																		-92.23872	873.32068	2302.42554																						
569	5.680																																		-91.70810	874.24377	2310.32202																						
570	5.690																																		-91.74631	873.96893	2315.87476																						
571	5.700																																		-93.44444	872.45917	2320.88232																						
572	5.710																																		-92.04662	872.64624	2328.49536																						
573	5.720																																		-94.10081	871.20355	2334.45850																						
574	5.730																																		-95.89122	870.37512	2340.55078																						
575	5.740																																		-98.86719	867.09717	2345.73413																						
576	5.750																																		-99.67154	866.27563	2352.09009																						
577	5.760																																		-103.51680	862.65338	2355.57886																						
578	5.770																																		-104.32990	861.34131	2362.85815																						
579	5.780																																		-108.69043	857.16980	2365.71924																						
580	5.790																																		-110.52150	855.38116	2372.20093																						
581	5.800																																		-115.10469	850.87726	2375.39380																						
582	5.810																																		-118.15262	847.11322	2379.23315																						
583	5.820																																		-119.62310	844.78143	2385.41211																						
584	5.830																																		-124.78146	838.76300	2387.71753																						
585	5.840																																		-129.17145	834.53638	2391.19263																						
586	5.850																																		-132.72092	830.01550	2394.72192																						
587	5.860																																		-136.09999	825.26215	2397.46191																						
588	5.870																																		-140.82310	821.10547	2399.70703																						
589	5.880																																		-144.71629	819.40955	2403.98828																						
590	5.890																																		-150.20201	817.86560	2404.36353																						
591	5.900																																		-153.01308	817.38348	2406.64917																						
592	5.910																																		-157.57982	816.42041	2405.30859																						
593	5.920																																		-159.90692	814.71887	2406.09888																						
594	5.930																																		-163.82510	813.23669	2404.16602																						
595	5.940																																		-164.82010	811.02130	2403.27002																						
596	5.950																																		-167.95845	808.61652	2399.26929																						
597	5.960																																		-169.24277	807.35034	2398.95483																						
598	5.970																																		-171.75121	804.29425	2395.48193																						
599	5.980																																		-172.42207	802.52264	2393.51807																						
600	5.990																																		-175.04424	800.85223	2389.71484																						
601	6.000																																		-174.89207	799.24805	2387.54321																						
602	6.010																																		-177.36679	797.34454	2382.27661																						
603	6.020																																		-176.71965	797.77209	2381.42554																						
604	6.030																																		-178.08936	796.38367	2376.43042																						
605	6.040																																		-178.85870	795.90277	2373.64941																						
606	6.050																																		-179.18567	797.04260	2370.36499																						
607	6.060																																		-179.32834	796.75018	2366.22900																						
608	6.070																																		-179.15480	797.40033	2364.38501																						
609	6.080																																		-179.22568	798.33960	2360.46289																						
610	6.090																																		-178.92653	799.64996	2357.17993																						
611	6.100																																		-178.27223	800.50153	2354.23853																						
612	6.110																																		-177.87459	801.23248	2352.80200																						
613	6.120																																		-177.13145	802.13550	2350.71313																						
614	6.130																																		-175.95105	802.95331	2348.56177																						
615	6.140																																		-175.62677	804.68658	2347.05005																						
616	6.150																																		-174.45755	804.57678	2345.21997																						
617	6.160																																		-173.88712	805.18860	2342.86279																						
618	6.170																																		-172.64954	805.10590	2342.56079																						
619	6.180																																		-171.58160	805.18359	2341.58594																						
620	6.190																																		-170.21524	805.64453	2340.10864																						
621	6.200																																		-168.98470	805.67456	2338.99805																						
622	6.210																																		-167.58891	805.78906	2337.35474																						
623	6.220																																		-166.35973	806.38879	2336.21802																						
624	6.230																																		-164.20691	806.01465	2334.30225																						
625	6.240																																		-162.74930	806.29767	2332.93604																						
626	6.250																																		-160.16391	806.89813	2332.84277																						
627	6.260																																		-157.70876	807.24615	2331.77686																						
628	6.270																																		-156.05945	807.23621	2329.99390																						
629	6.280																																		-153.45374	807.66742	2327.91992																						
